# xmcd
#
# Track frame offsets:
#	150
#	12571
#	29307
#	43486
#	55761
#	68645
#	81393
#	100750
#	113878
#	126975
#	144981
#	155035
#	167829
#
# Disc length: 2507 seconds
#
# Revision: 0
# Processed by: cddbd v1.5.1PL0 Copyright (c) Steve Scherf et al.
# Submitted via: EasyCDDAExtractor 8.2.2.1
#
DISCID=b609c90d
DTITLE=Various Artist - Ritmo y Sabor Provinciano
DYEAR=2003
DGENRE=Son
TTITLE0=Trío Matamoros - Olvido
TTITLE1=Los Compadres - Hay un run-run
TTITLE2=Ñico Saquito - Cuidadito, compay gallo
TTITLE3=6 de Oriente - El que siembra su maíz
TTITLE4=Carlos Puebla - Y si no fuera por Emiliana
TTITLE5=Compay Segundo - La juma de ayer
TTITLE6=Cuarteto Patria - Lllegó el Cuarteto Patria
TTITLE7=6 de Oriente - El fiel enamorado
TTITLE8=Septeto Sones de Oriente - La Mora
TTITLE9=Quinteto Trova - De una manera espantosa
TTITLE10=Quinteto Trova - Tírame la pelota
TTITLE11=Sones de Oriente - Eloísa
TTITLE12=Ibrahim Ferrer - Calabaza con puerco
EXTD=
EXTT0=
EXTT1=
EXTT2=
EXTT3=
EXTT4=
EXTT5=
EXTT6=
EXTT7=
EXTT8=
EXTT9=
EXTT10=
EXTT11=
EXTT12=
PLAYORDER=
